<?xml version="1.0" encoding="UTF-8"?>
<!DOCTYPE svg PUBLIC "-//W3C//DTD SVG 1.1//EN" "http://www.w3.org/Graphics/SVG/1.1/DTD/svg11.dtd">
<!-- Creator: CorelDRAW -->
<svg xmlns="http://www.w3.org/2000/svg" xml:space="preserve" width="3.70333in" height="2.08333in" version="1.1" style="shape-rendering:geometricPrecision; text-rendering:geometricPrecision; image-rendering:optimizeQuality; fill-rule:evenodd; clip-rule:evenodd"
viewBox="0 0 3703.33 2083.33"
 xmlns:xlink="http://www.w3.org/1999/xlink"
 xmlns:xodm="http://www.corel.com/coreldraw/odm/2003">
 <defs>
  <style type="text/css">
   <![CDATA[
    .fil8 {fill:#128BFE}
    .fil7 {fill:#353535}
    .fil4 {fill:#3D3D3D}
    .fil3 {fill:#8F8F8F}
    .fil5 {fill:#A1A1A1}
    .fil9 {fill:#D41459}
    .fil10 {fill:#DCDDDD}
    .fil0 {fill:#E6E7E8}
    .fil6 {fill:#FEFEFE}
    .fil14 {fill:#FEFEFE;fill-rule:nonzero}
    .fil13 {fill:#782317;fill-rule:nonzero}
    .fil12 {fill:#D41459;fill-rule:nonzero}
    .fil11 {fill:#F9E4D9;fill-rule:nonzero}
    .fil2 {fill:#373435;fill-opacity:0.031373}
    .fil1 {fill:#373435;fill-opacity:0.101961}
   ]]>
  </style>
 </defs>
 <g id="Layer_x0020_1">
  <metadata id="CorelCorpID_0Corel-Layer"/>
  <polygon class="fil0" points="-1.67,1.74 3701.66,1.74 3701.66,2084.93 -1.67,2084.93 "/>
  <polygon class="fil1" points="1629.23,2084.93 1628.5,2084.93 1068.27,2084.93 1068.16,2084.93 992.87,2084.93 302.09,2084.93 266.01,2084.93 265.84,2084.93 229.19,2084.93 228.39,2084.93 228.35,2084.93 48.39,2084.93 48.28,2084.93 -1.67,2084.93 -1.67,1599.17 -1.67,1480.92 -1.67,1475.17 -1.67,1366.83 1527.35,430.31 1527.35,695.53 1282.03,840.51 1282.03,1414.36 1282.15,1414.36 1094.56,1621.81 1095.42,1621.83 1094.56,1622.29 1094.63,1643.32 1095.15,1645.97 1096.13,1648.43 1097.53,1650.65 1099.3,1652.57 1101.38,1654.16 1103.72,1655.35 1106.29,1656.1 1109.03,1656.36 1850,1656.36 1930.76,1656.36 2417.84,1414.36 2417.96,1414.36 1930.87,1656.36 2531.8,1656.36 2604.57,1621.83 2605.43,1621.81 2532.59,1656.36 2577.78,1656.36 2605.36,1643.32 2605.32,1656.36 1697.04,2084.93 1686.6,2084.93 1683.66,2084.93 1671.36,2084.93 "/>
  <path class="fil2" d="M214.02 1828.24c7,11 12,21 16,32 3,7 5,19 21,19 5,0 11,-1 17,-5 7,-3 12,-9 14,-17l6 -21 15 -7 1 1c-2,8 -3,16 -3,21 0,18 15,24 27,24 7,0 13,-4 13,-10 0,-8 -4,-23 -8,-35 7,-7 14,-14 22,-20l1 1c4,15 6,30 6,40 0,10 -4,20 -8,27 -7,14 -20,25 -36,25 -12,0 -25,-6 -34,-17l-1 0c-9,11 -22,20 -43,20l-7 0c-1,14 -4,24 -9,33 -13,25 -50,42 -85.01,42 -49,0 -73.01,-28 -73.01,-66 0,-23 8,-45 19,-60l10 4c-7,14 -12,27 -12,40 0,35 29,52 62,52 31,0 68.01,-19 75.01,-42 -3,-25 -12,-36 -26,-59 4,-7 10,-15 17,-23l1 0 0 0 0 0 0 0 2 1 0 0 0 0 0 0 0 0 0 0 0 0 0 0 0 0 0 0 0 0 0 0 0.02 -0.01 -0.01 0.01zm564.05 -133.01c10,6 20,14 30,23 -6,8 -12,15 -21,21 -10,-8 -20,-15 -30,-22 7,-8 14,-15 20,-22l0 0 0 0 0 0 1 0 0 0 0 0 0 0zm5 96.01c-17,0 -30,11 -30,19 0,17 33,23 73.01,23 -5,-20 -22,-42 -43,-42l0 0 -0.01 0zm-37 93.01c22,0 41,-1 55,-4 16,-4 30,-12 30,-18 0,-2 0,-3 -1,-5 -9,1 -19,1 -29,1 -29,0 -52,-7 -61,-23 -2,-5 -4,-10 -4,-16 0,-16 7,-32 19,-42 10,-9 21,-14 33,-14 20,0 37,16 48,42 6,14 11,30 11,51 0,14 -4,25 -12,34 -16,15 -45,21 -90.01,21l-20 0 0 0 -5 0c-11,0 -19,-2 -25,-7l-1 0c0,3 1,5 1,7 0,10 -3,23 -10,33 -20,30 -42,43 -60,43 -19,0 -42,-7 -63,-17l4 -7c7,3 16,5 29,5 34,0 78.01,-33 84.01,-64 -1,-3 -4,-6 -7,-10 -10,-12 -16,-22 -22,-32 5,-10 10,-18 14,-25l2 0c14,29 28,46 57,46l5 0 0 0 21 0 0 0 0 0 0 0 -3 1 0 0 0 0 0 0zm-146.01 31c2,-14 3,-29 3,-43l0 -21c0,-39 -5,-96.01 -9,-133.01 7,-8 17,-17 25,-23l2 1c5,47 7,101.01 7,151.01 0,13 -1,26 -2,35 -1,12 -8,21 -22,35l-3 -1 0 0 0 0 0 0 -1 -1 0 0 0 0 0 0zm-151.02 -62.01c1,18 10,33 41,33 20,0 36,-5 55,-14 3,-1 5,-3 5,-5 0,-12 -9,-27 -24,-41 -14,-13 -34,-25 -52,-32 -6,-3 -8,-5 -8,-8 0,-5 7,-16 13,-24l2 0c20,11 43,27 60,44 15,16 25,33 25,51 0,13 -4,26 -11,38 -22,11 -46,20 -70.01,20 -29,0 -48,-14 -48,-45 0,-3 0,-9 1,-16l10 0 0 0 0 0 0 0 1 -1 0 0 0 0 0 0 0 0 0.01 0zm-52 -52l18 29c7,11 13,22 13,41l0 24c0,19 -12,39 -32,60 -15,14 -29,20 -42,20 -19,0 -40,-6 -65,-17l3 -7c8,2 17,4 28,4 36,0 72.01,-26 89.01,-58 2,-4 3,-7 3,-9 0,-4 -2,-8 -4,-11 -9,-17 -19,-33 -30,-47 6,-9 12,-18 18,-27l1 0 0 -2 0 0 0 0 0 0 0 0 -0.01 0z"/>
  <g id="_2263672537488">
   <polygon class="fil3" points="1850,1403.76 2417.42,1413.89 2605.43,1621.81 1850,1645.77 1094.56,1621.81 1282.57,1413.89 "/>
   <path class="fil4" d="M1850 1624.95l-755.43 -3.13 0.07 21.49 0 0.09 -0 -0.09c0.72,7.3 6.92,13.04 14.4,13.04l740.97 0 740.97 0c7.48,0 13.68,-5.75 14.39,-13.04l0.07 -21.49 -755.44 3.13 0 0zm755.33 31.41l0.04 -13.04 0 -0 -0.04 13.05z"/>
   <path class="fil5" d="M1236.07 1547.84l1234 0 -20.06 -22.59 -1193.87 0 -23.14 19.12 3.07 3.47zm1204.46 -33.27l-18.96 -21.35 -1136.99 0 -22.04 17.88 3.08 3.47 1174.91 0zm-28.44 -32.03l-18.5 -20.84 -1081.02 0 -21.58 17.37 3.08 3.47 1118.03 0zm-27.98 -31.51l-15.78 -17.77 -1030.5 0 -18.86 14.3 3.08 3.47 1062.06 0z"/>
   <polygon class="fil6" points="1298.16,1456.92 1330.54,1420.45 2369.45,1420.45 2487.8,1553.72 1212.19,1553.72 "/>
   <path class="fil3" d="M1233 1544.37l1234 0 -20.06 -22.59 -1193.88 0 -20.06 22.59zm1204.46 -33.27l-18.96 -21.35 -1137 0 -18.96 21.35 1174.92 0zm-28.44 -32.02l-18.51 -20.84 -1081.02 0 -18.5 20.84 1118.04 0zm-27.99 -31.51l-15.78 -17.77 -1030.51 0 -15.78 17.77 1062.06 0z"/>
   <polygon class="fil6" points="1687.24,1619.98 1715.06,1544.37 1984.94,1544.37 2012.75,1619.98 "/>
   <polygon class="fil3" points="1700.65,1610.63 1999.35,1610.63 1978.42,1553.72 1721.58,1553.72 "/>
   <path class="fil7" d="M2403.61 695.54l-1107.23 0c-7.35,0 -13.46,5.55 -14.35,12.67l0 706.16 1135.93 0 0 -706.16c-0.89,-7.12 -7,-12.67 -14.35,-12.67z"/>
   <path class="fil8" d="M1338.64 1054.95l0 -303.55c0.89,-7.12 7,-12.67 14.35,-12.67l994.01 0c7.35,0 13.46,5.56 14.35,12.67l0 607.11c-0.89,7.11 -7,12.67 -14.35,12.67l-994.01 0c-7.35,0 -13.46,-5.56 -14.35,-12.67l0 -303.56z"/>
   <polygon class="fil6" points="1527.35,1300.39 2172.65,1300.39 2172.65,430.31 1527.35,430.31 "/>
   <polygon class="fil9" points="1589.68,657.58 2132.43,657.58 2132.43,492.5 1589.68,492.5 "/>
   <polygon class="fil10" points="1834.87,790.91 2132.43,790.91 2132.43,766.79 1834.87,766.79 "/>
   <polygon class="fil10" points="1834.87,842.72 2132.43,842.72 2132.43,818.6 1834.87,818.6 "/>
   <polygon class="fil10" points="1834.87,894.53 2132.43,894.53 2132.43,870.41 1834.87,870.41 "/>
   <polygon class="fil10" points="1834.87,739.11 2132.43,739.11 2132.43,714.98 1834.87,714.98 "/>
   <path class="fil8" d="M1602.65 954.41l55.99 0c7.14,0 12.98,5.84 12.98,12.97l0 55.99c0,7.14 -5.84,12.98 -12.98,12.98l-55.99 0c-7.14,0 -12.97,-5.84 -12.97,-12.98l0 -55.99c0,-7.13 5.83,-12.97 12.97,-12.97z"/>
   <path class="fil8" d="M1602.65 1067.07l55.99 0c7.14,0 12.98,5.84 12.98,12.98l0 55.99c0,7.13 -5.84,12.97 -12.98,12.97l-55.99 0c-7.14,0 -12.97,-5.84 -12.97,-12.97l0 -55.99c0,-7.14 5.83,-12.98 12.97,-12.98z"/>
   <path class="fil8" d="M1602.65 1179.74l55.99 0c7.14,0 12.98,5.84 12.98,12.98l0 55.99c0,7.14 -5.84,12.98 -12.98,12.98l-55.99 0c-7.14,0 -12.97,-5.84 -12.97,-12.98l0 -55.99c0,-7.14 5.83,-12.98 12.97,-12.98z"/>
   <path class="fil6" d="M1603.56 1000.63c5.81,5.56 10.63,11.83 14.45,18.83 3.98,6.61 5.61,3.78 7.2,-0.52 5.67,-16.14 17.06,-32.39 34.19,-48.73 3.84,-3.63 0.46,-3.13 -2.41,-2.02 -14.46,5.57 -26.67,18.26 -37.04,33.26 -3.9,-2.66 -12.95,-10.84 -18.18,-7.43 -3.76,2.46 -0.01,4.9 1.79,6.61z"/>
   <path class="fil6" d="M1603.57 1113.3c5.81,5.56 10.63,11.83 14.44,18.82 3.99,6.61 5.61,3.78 7.2,-0.52 5.67,-16.14 17.06,-32.39 34.19,-48.74 3.84,-3.63 0.47,-3.13 -2.41,-2.02 -14.46,5.57 -26.67,18.25 -37.04,33.26 -3.9,-2.66 -12.95,-10.84 -18.18,-7.43 -3.76,2.45 -0.01,4.9 1.79,6.61z"/>
   <path class="fil6" d="M1603.57 1225.97c5.81,5.56 10.63,11.83 14.44,18.82 3.99,6.61 5.61,3.78 7.2,-0.52 5.67,-16.14 17.06,-32.39 34.19,-48.74 3.84,-3.63 0.47,-3.13 -2.41,-2.02 -14.46,5.57 -26.67,18.26 -37.04,33.26 -3.9,-2.67 -12.95,-10.85 -18.18,-7.43 -3.76,2.46 -0.01,4.9 1.79,6.61z"/>
   <path class="fil10" d="M1704.81 964.24l427.62 0 0 24.12 -427.62 0 0 -24.12zm0 38.14l427.62 0 0 24.12 -427.62 0 0 -24.12z"/>
   <path class="fil10" d="M1704.81 1076.91l427.62 0 0 24.12 -427.62 0 0 -24.12zm0 38.15l427.62 0 0 24.12 -427.62 0 0 -24.12z"/>
   <path class="fil10" d="M1704.81 1189.58l427.62 0 0 24.13 -427.62 0 0 -24.13zm0 38.15l427.62 0 0 24.12 -427.62 0 0 -24.12z"/>
   <g>
    <g>
     <g>
      <path class="fil11" d="M1594.59 806.25c0,48.26 39.12,87.38 87.38,87.38 48.26,0 87.38,-39.13 87.38,-87.38 0,-48.26 -39.12,-87.39 -87.38,-87.39 -48.26,0 -87.38,39.12 -87.38,87.39z"/>
     </g>
     <g>
      <path class="fil12" d="M1681.97 897.52c-50.33,0 -91.27,-40.94 -91.27,-91.26 0,-50.33 40.94,-91.27 91.27,-91.27 50.33,0 91.27,40.94 91.27,91.27 0,50.32 -40.94,91.26 -91.27,91.26zm0 -174.76l0 0c-46.04,0 -83.5,37.46 -83.5,83.5 0,46.04 37.46,83.5 83.5,83.5 46.04,0 83.5,-37.46 83.5,-83.5 0,-46.04 -37.46,-83.5 -83.5,-83.5z"/>
     </g>
    </g>
    <g>
     <path class="fil13" d="M1611.98 856.96c3.13,-3.8 6.3,-7.54 9.9,-10.91 13.33,-12.48 28.98,-20.31 47.07,-22.89 26.69,-3.81 50.29,3.33 70.79,20.75 4.15,3.54 7.86,7.55 11.2,11.88 0.32,0.41 0.68,0.79 1.02,1.18 -1.38,2.75 -3.54,4.91 -5.59,7.13 -13.57,14.71 -30.22,23.99 -49.96,27.17 -25.57,4.12 -48.66,-2.06 -69.07,-18.05 -5.47,-4.28 -10.25,-9.27 -14.47,-14.78 -0.35,-0.46 -0.85,-0.83 -0.89,-1.48z"/>
     <path class="fil13" d="M1681.99 743.29c18.63,-0 33.79,15.13 33.79,33.74 0.01,18.72 -15.14,33.85 -33.87,33.83 -18.59,-0.02 -33.7,-15.19 -33.7,-33.83 0,-18.61 15.15,-33.74 33.78,-33.74z"/>
    </g>
    <g>
     <path class="fil12" d="M1681.97 897.52c-50.33,0 -91.27,-40.94 -91.27,-91.26 0,-50.33 40.94,-91.27 91.27,-91.27 50.33,0 91.27,40.94 91.27,91.27 0,50.32 -40.94,91.26 -91.27,91.26zm0 -174.76l0 0c-46.04,0 -83.5,37.46 -83.5,83.5 0,46.04 37.46,83.5 83.5,83.5 46.04,0 83.5,-37.46 83.5,-83.5 0,-46.04 -37.46,-83.5 -83.5,-83.5z"/>
    </g>
   </g>
   <path class="fil14" d="M1635.72 619.13l0 -89.57 39.7 0c7.98,0 14.05,0.81 18.2,2.42 4.15,1.6 7.46,4.44 9.94,8.51 2.48,4.07 3.71,8.57 3.71,13.49 0,6.36 -2.06,11.72 -6.17,16.07 -4.11,4.36 -10.44,7.11 -19.04,8.3 3.15,1.5 5.53,3 7.15,4.46 3.46,3.17 6.73,7.15 9.8,11.93l15.49 24.39 -14.8 0 -11.85 -18.64c-3.44,-5.4 -6.3,-9.51 -8.53,-12.36 -2.25,-2.86 -4.25,-4.84 -6.02,-5.98 -1.75,-1.13 -3.56,-1.92 -5.4,-2.38 -1.33,-0.27 -3.53,-0.42 -6.59,-0.42l-13.72 0 0 39.78 -11.88 0zm11.88 -50.04l25.44 0c5.42,0 9.63,-0.56 12.68,-1.69 3.04,-1.1 5.36,-2.9 6.92,-5.38 1.59,-2.46 2.38,-5.13 2.38,-8.02 0,-4.23 -1.52,-7.74 -4.59,-10.47 -3.07,-2.73 -7.9,-4.09 -14.51,-4.09l-28.31 0 0 29.65zm121.12 29.02l11.38 1.5c-1.77,6.61 -5.09,11.76 -9.92,15.41 -4.84,3.65 -11.01,5.48 -18.54,5.48 -9.47,0 -16.98,-2.92 -22.52,-8.76 -5.54,-5.82 -8.32,-14.01 -8.32,-24.54 0,-10.89 2.79,-19.35 8.4,-25.35 5.61,-6.02 12.89,-9.03 21.83,-9.03 8.65,0 15.72,2.94 21.2,8.84 5.48,5.9 8.24,14.2 8.24,24.89 0,0.65 -0.02,1.63 -0.06,2.92l-48.35 0c0.42,7.11 2.42,12.57 6.04,16.35 3.61,3.78 8.13,5.67 13.54,5.67 4.02,0 7.46,-1.06 10.3,-3.19 2.85,-2.13 5.11,-5.52 6.78,-10.2zm-36.03 -17.64l36.15 0c-0.48,-5.46 -1.88,-9.55 -4.15,-12.28 -3.48,-4.23 -8.02,-6.35 -13.59,-6.35 -5.04,0 -9.28,1.69 -12.72,5.07 -3.42,3.37 -5.31,7.9 -5.69,13.57zm56.94 19.27l10.88 -1.75c0.61,4.35 2.31,7.69 5.11,10.03 2.79,2.31 6.71,3.48 11.72,3.48 5.07,0 8.82,-1.02 11.28,-3.09 2.44,-2.04 3.67,-4.46 3.67,-7.23 0,-2.48 -1.1,-4.44 -3.3,-5.86 -1.54,-0.98 -5.29,-2.21 -11.26,-3.73 -8.05,-2.02 -13.61,-3.77 -16.74,-5.25 -3.11,-1.5 -5.46,-3.55 -7.07,-6.17 -1.6,-2.61 -2.42,-5.5 -2.42,-8.67 0,-2.9 0.67,-5.57 1.98,-8.03 1.34,-2.46 3.13,-4.51 5.4,-6.13 1.71,-1.25 4.04,-2.31 6.99,-3.19 2.96,-0.88 6.11,-1.31 9.48,-1.31 5.09,0 9.55,0.73 13.39,2.21 3.86,1.46 6.69,3.46 8.53,5.96 1.81,2.52 3.09,5.88 3.78,10.09l-10.76 1.5c-0.48,-3.38 -1.9,-6.02 -4.23,-7.92 -2.34,-1.9 -5.63,-2.83 -9.9,-2.83 -5.03,0 -8.64,0.83 -10.78,2.5 -2.15,1.67 -3.23,3.63 -3.23,5.86 0,1.42 0.44,2.71 1.33,3.86 0.9,1.17 2.3,2.15 4.21,2.92 1.11,0.42 4.31,1.35 9.7,2.82 7.76,2.06 13.18,3.77 16.26,5.08 3.09,1.31 5.51,3.26 7.26,5.76 1.77,2.52 2.65,5.65 2.65,9.4 0,3.65 -1.06,7.09 -3.21,10.32 -2.15,3.23 -5.23,5.74 -9.26,7.5 -4.04,1.78 -8.61,2.65 -13.7,2.65 -8.43,0 -14.87,-1.75 -19.29,-5.23 -4.42,-3.5 -7.24,-8.68 -8.46,-15.53zm109.33 19.39l0 -9.65c-5.05,7.36 -11.89,11.03 -20.54,11.03 -3.81,0 -7.38,-0.73 -10.69,-2.19 -3.31,-1.48 -5.78,-3.31 -7.38,-5.52 -1.61,-2.23 -2.73,-4.94 -3.38,-8.15 -0.44,-2.17 -0.67,-5.59 -0.67,-10.26l0 -40.17 11.01 0 0 35.92c0,5.73 0.23,9.61 0.67,11.59 0.69,2.9 2.15,5.15 4.4,6.8 2.23,1.65 4.98,2.48 8.28,2.48 3.3,0 6.38,-0.83 9.26,-2.52 2.88,-1.69 4.92,-4 6.13,-6.9 1.19,-2.9 1.8,-7.13 1.8,-12.66l0 -34.71 11.01 0 0 64.92 -9.88 0zm27.17 0l0 -64.92 9.88 0 0 9.17c2.02,-3.17 4.74,-5.74 8.11,-7.65 3.38,-1.94 7.22,-2.9 11.53,-2.9 4.8,0 8.73,1 11.8,2.98 3.06,2 5.23,4.78 6.48,8.36 5.17,-7.57 11.87,-11.34 20.12,-11.34 6.47,0 11.45,1.77 14.91,5.33 3.48,3.57 5.23,9.05 5.23,16.45l0 44.51 -11.01 0 0 -40.86c0,-4.38 -0.37,-7.55 -1.08,-9.49 -0.71,-1.94 -2,-3.48 -3.9,-4.67 -1.87,-1.19 -4.08,-1.78 -6.61,-1.78 -4.59,0 -8.38,1.53 -11.41,4.55 -3.02,3.05 -4.52,7.91 -4.52,14.57l0 37.67 -11.01 0 0 -42.13c0,-4.88 -0.89,-8.55 -2.69,-10.99 -1.79,-2.44 -4.73,-3.67 -8.8,-3.67 -3.09,0 -5.94,0.81 -8.57,2.44 -2.63,1.63 -4.52,4 -5.71,7.15 -1.17,3.13 -1.75,7.65 -1.75,13.55l0 33.65 -11.01 0zm148.49 -21.02l11.39 1.5c-1.77,6.61 -5.09,11.76 -9.92,15.41 -4.84,3.65 -11.01,5.48 -18.54,5.48 -9.46,0 -16.97,-2.92 -22.52,-8.76 -5.55,-5.82 -8.32,-14.01 -8.32,-24.54 0,-10.89 2.8,-19.35 8.41,-25.35 5.61,-6.02 12.89,-9.03 21.83,-9.03 8.65,0 15.72,2.94 21.2,8.84 5.48,5.9 8.24,14.2 8.24,24.89 0,0.65 -0.02,1.63 -0.06,2.92l-48.35 0c0.41,7.11 2.42,12.57 6.04,16.35 3.61,3.78 8.13,5.67 13.53,5.67 4.03,0 7.46,-1.06 10.3,-3.19 2.85,-2.13 5.11,-5.52 6.77,-10.2zm-36.03 -17.64l36.15 0c-0.48,-5.46 -1.88,-9.55 -4.15,-12.28 -3.48,-4.23 -8.02,-6.35 -13.59,-6.35 -5.04,0 -9.28,1.69 -12.72,5.07 -3.42,3.37 -5.31,7.9 -5.69,13.57z"/>
  </g>
 </g>
</svg>
